<svg viewBox="0 0 1510 970" fill="none" xmlns="http://www.w3.org/2000/svg">
<mask id="mask0" mask-type="alpha" maskUnits="userSpaceOnUse" x="0" y="833" width="35" height="23">
<path fill-rule="evenodd" clip-rule="evenodd" d="M0 833.866H34.3969V855.682H0V833.866Z" fill="white"/>
</mask>
<g mask="url(#mask0)">
<path fill-rule="evenodd" clip-rule="evenodd" d="M0.000265366 845.408C-0.043858 837.606 5.42009 833.903 12.1661 833.866C21.0177 833.817 32.225 840.411 34.3969 851.876L33.5536 852.109C31.6073 842.48 24.2044 838.16 15.3503 838.209C17.4658 839.575 18.9562 842.321 18.9709 845.305C19.0027 851.043 14.811 855.655 9.54317 855.682C4.27043 855.714 0.0321322 851.146 0.000265366 845.408Z" fill="#7AA0B2"/>
</g>
<path fill-rule="evenodd" clip-rule="evenodd" d="M135.018 800.852L56.8089 800.644L49.1854 813.017L41.6648 786.834L57.054 786.876C47.3837 776.521 40.8779 766.176 40.9122 752.175C40.9466 739.324 47.5136 727.179 60.3878 721.706C50.9233 712.271 41.0471 700.768 41.0912 683.786C41.1378 666.114 53.4065 650.083 77.439 650.144L135.41 650.301L147.247 637.938L147.147 676.493L135.375 664.069L76.559 663.912C57.3752 663.863 43.8538 675.302 43.8146 689.989C43.7876 700.548 51.3499 710.893 62.0743 721.02C66.5063 719.426 71.5682 718.521 77.2601 718.538L135.233 718.69L147.068 706.329L146.968 744.885L135.194 732.461L76.3801 732.304C57.1962 732.252 43.6749 743.691 43.6381 758.381C43.6111 768.709 51.1734 778.828 59.3754 786.881L135.054 787.084L146.892 774.721L146.791 813.277L135.018 800.852Z" fill="#7AA0B2"/>
<path fill-rule="evenodd" clip-rule="evenodd" d="M109.386 509.04C103.579 526.7 111.737 541.706 127.156 546.78C145.18 552.711 165.519 540.797 171.47 522.701C177.064 505.698 167.889 491.082 154.274 486.602C139.655 481.791 116.843 486.367 109.386 509.04ZM82.4514 482.299C78.218 495.162 82.5617 506.255 94.1588 514.177C103.013 495.346 127.131 482.745 145.131 483.351L111.286 472.216C97.0709 467.538 86.7534 469.22 82.4514 482.299ZM179.273 480.087L194.358 472.005L186.185 496.859L162.153 488.954C176.439 500.176 180.06 516.831 174.397 534.054C167.585 554.763 146.886 567.766 127.46 561.376C107.234 554.722 99.738 533.651 106.908 511.85C110.279 501.603 115.049 495.196 119.63 491.391C107.95 497.212 97.7402 506.657 93.2959 520.175L90.0676 529.986C78.0611 515.889 74.1096 498.882 80.1325 480.573C86.1553 462.258 100.098 454.279 116.993 459.598L179.273 480.087Z" fill="#7AA0B2"/>
<path fill-rule="evenodd" clip-rule="evenodd" d="M201.902 433.773L217.971 427.883L200.922 462.459L195.813 446.123L89.552 393.702L77.2637 401.457L82.0265 374.637L201.902 433.773Z" fill="#7AA0B2"/>
<path fill-rule="evenodd" clip-rule="evenodd" d="M216.564 242.393L232.894 220.509L234.946 237.504L277.927 306.812L292.12 317.41L287.593 323.476L206.974 304.243L240.219 357.694L254.243 368.164L249.713 374.233L150.134 351.15L133.264 354.016L157.828 321.1L159.877 338.093L236.632 356.159L204.123 303.833L188.148 300.212L171.276 303.078L195.703 270.343L197.755 287.338L274.508 305.405L233.436 239.526L216.564 242.393Z" fill="#7AA0B2"/>
<path fill-rule="evenodd" clip-rule="evenodd" d="M303.245 209.195C289.278 221.455 288.685 238.526 299.39 250.732C311.901 265 335.47 265.076 349.783 252.517C363.238 240.713 362.756 223.458 353.303 212.679C343.153 201.108 321.182 193.455 303.245 209.195ZM293.624 172.473C283.449 181.404 281.554 193.163 287.523 205.88C304.714 194.164 331.886 195.566 347.08 205.237L323.584 178.444C313.712 167.189 303.973 163.391 293.624 172.473ZM378.145 219.775L395.243 220.481L375.581 237.734L358.897 218.711C365.501 235.637 360.165 251.823 346.538 263.779C330.156 278.158 305.724 278.835 292.239 263.46C278.196 247.449 282.439 225.491 299.686 210.357C307.79 203.241 315.151 200.152 321.032 199.2C308.016 198.278 294.426 201.226 283.733 210.61L275.972 217.419C272.788 199.173 278.019 182.519 292.506 169.808C306.993 157.094 323.054 157.31 334.904 170.475L378.145 219.775Z" fill="#7AA0B2"/>
<path fill-rule="evenodd" clip-rule="evenodd" d="M434.201 186.887L408.411 212.474C400.035 220.782 393.904 233.652 398.944 241.938C403.001 248.602 411.137 247.844 421.327 241.638C437.199 231.973 441.996 210.284 441.479 191.343L434.201 186.887ZM409.355 88.6986L432.674 74.4965L428.23 91.0255L438.746 174.492L447.514 188.9L442.617 191.884C450.493 221.159 446.323 241.226 430.647 250.775C417.714 258.653 403.837 257.476 397.26 246.67C391.448 237.122 395.505 223.047 407.053 211.569L432.846 185.985L353.375 136.621L336.654 132.98L371.928 111.495L367.484 128.027L435.939 170.77L426.078 92.3398L409.355 88.6986Z" fill="#7AA0B2"/>
<path fill-rule="evenodd" clip-rule="evenodd" d="M558.253 110.395C563.829 124.517 553.387 139.297 536.316 146.043L500.681 160.118L486.069 139.364L516.183 148.779C522.292 148.635 530.303 147.056 535.85 144.866C550.575 139.05 560.802 126.846 556.62 116.256C551.97 104.489 528.874 104.091 512.891 103.601C499.296 103.53 474.629 101.031 468.121 84.5561C462.311 69.8464 472.192 58.0105 486.488 52.3611L517.429 40.1402L531.732 60.1094L502.625 50.7476C496.651 50.6128 491.859 51.5985 486.952 53.538C474.788 58.3415 465.513 68.5812 469.077 77.6046C473.492 88.7858 495.97 90.1075 508.263 90.0118C526.03 90.0216 549.653 88.624 558.253 110.395Z" fill="#7AA0B2"/>
<path fill-rule="evenodd" clip-rule="evenodd" d="M706.507 104.934C726.377 103.058 739.967 85.8888 737.727 62.1679C734.834 31.5177 706.167 3.72159 678.759 6.30602C658.883 8.18181 645.293 25.3509 647.534 49.0742C650.429 79.7244 679.094 107.521 706.507 104.934ZM687.35 2.10816C720.014 -0.971576 747.934 21.3859 750.611 49.7264C753.506 80.3766 728.981 106.201 697.915 109.131C665.249 112.214 637.327 89.8562 634.652 61.5133C631.757 30.863 656.283 5.04078 687.35 2.10816Z" fill="#7AA0B2"/>
<path fill-rule="evenodd" clip-rule="evenodd" d="M794.374 86.2154C801.36 97.6442 814.387 106.803 828.288 108.421C848.117 110.728 868.823 89.5746 872.061 61.7197C875.299 33.8598 859.998 8.5182 840.172 6.2084C826.268 4.59252 811.489 10.5141 802.069 20.0304L794.374 86.2154ZM775.438 129.866L788.881 14.2486L777.45 5.27663L804.309 0.76001L802.385 17.3062C811.911 8.86394 826.261 2.67994 840.388 4.32525C872.296 8.03761 891.831 34.7254 888.47 63.6274C885.109 92.5318 859.976 114.019 828.067 110.304C813.938 108.659 801.392 99.3435 794.056 88.9396L789.114 131.458L800.056 144.618L761.77 140.162L775.438 129.866Z" fill="#7AA0B2"/>
<path fill-rule="evenodd" clip-rule="evenodd" d="M1012.74 70.8064C1012.49 56.6754 1002.31 46.7275 989.505 42.3433C974.093 37.0617 960.197 40.1046 947.624 48.5028L1012.74 70.8064ZM972.323 58.5218L945.844 49.4542C939.464 54.6231 934.917 61.5353 932.186 69.5166C923.17 95.8489 936.814 126.825 962.861 135.743C988.257 144.443 1008.77 133.414 1014.77 115.857C1022.02 94.7111 1007.27 70.4925 972.323 58.5218ZM1016.96 117.275C1011.15 134.23 988.526 151.446 958.356 141.111C930.141 131.445 906.185 102.957 916.907 71.6376C927.425 40.9163 960.413 28.1437 989.715 38.1774C1010.34 45.2416 1024.33 59.6203 1030.06 78.2998L981.006 61.4961C1008.47 73.3565 1024.74 94.5321 1016.96 117.275Z" fill="#7AA0B2"/>
<path fill-rule="evenodd" clip-rule="evenodd" d="M1109.12 202.255L1113.78 218.725L1080.59 199.119L1097.26 195.255L1127.07 144.777C1137.04 127.89 1131.04 109.162 1117.21 100.994C1107.53 95.2761 1096.1 96.1196 1083.39 99.1429L1044.91 164.327L1049.58 180.798L1016.38 161.194L1033.06 157.327L1072.83 89.9626L1066.02 77.1238L1092.4 83.8914L1084.57 97.147C1100.1 94.3149 1111.6 94.2511 1124.44 101.835C1141.04 111.638 1150.82 131.622 1138.49 152.504L1109.12 202.255Z" fill="#7AA0B2"/>
<path fill-rule="evenodd" clip-rule="evenodd" d="M1269.18 191.82L1256.17 205.049L1270.4 219.05L1269.36 220.102L1255.14 206.098L1203.09 259.003C1186.38 275.986 1189.54 286.191 1196.57 293.115C1198.04 294.562 1199.82 296.021 1201.59 297.171L1200.72 298.382C1198.95 297.235 1197.32 295.626 1195.85 294.177C1183.25 281.782 1179.53 263.323 1191.06 251.6L1245.33 196.442L1235.67 186.945L1269.18 191.82Z" fill="#7AA0B2"/>
<path fill-rule="evenodd" clip-rule="evenodd" d="M1248.78 353.591C1260.8 369.524 1282.54 372.084 1301.56 357.728C1326.12 339.176 1334.73 300.184 1318.14 278.206C1306.12 262.273 1284.38 259.713 1265.37 274.07C1240.81 292.621 1232.19 331.614 1248.78 353.591ZM1326.23 283.316C1345.99 309.504 1341.62 345.009 1318.9 362.163C1294.34 380.715 1259.49 373.389 1240.7 348.481C1220.94 322.291 1225.31 286.788 1248.02 269.634C1272.58 251.082 1307.43 258.408 1326.23 283.316Z" fill="#7AA0B2"/>
<path fill-rule="evenodd" clip-rule="evenodd" d="M1453.49 553.586L1461.65 579.644L1446.68 571.351L1365.34 565.591L1348.44 570.893L1346.18 563.664L1408.98 509.578L1346.2 505.213L1329.5 510.45L1327.24 503.224L1404.27 436.017L1411.83 420.657L1424.11 459.858L1409.14 451.565L1349.55 503.202L1410.99 507.506L1423.28 496.677L1430.84 481.318L1443.05 520.3L1428.08 512.005L1368.49 563.645L1445.93 568.943L1453.49 553.586Z" fill="#7AA0B2"/>
<path fill-rule="evenodd" clip-rule="evenodd" d="M1365.37 679.631C1366.77 699.549 1383.61 713.547 1407.37 711.872C1438.07 709.712 1466.53 681.708 1464.6 654.235C1463.19 634.317 1446.36 620.319 1422.6 621.991C1391.89 624.154 1363.44 652.158 1365.37 679.631ZM1468.59 662.928C1470.89 695.665 1447.89 723.054 1419.5 725.052C1388.8 727.217 1363.57 702.074 1361.38 670.938C1359.07 638.201 1382.08 610.812 1410.47 608.812C1441.17 606.646 1466.4 631.789 1468.59 662.928Z" fill="#7AA0B2"/>
<path fill-rule="evenodd" clip-rule="evenodd" d="M1469.49 813L1455.16 809.54C1455.82 788.884 1450.36 771.894 1437.71 771.88L1375.73 771.801L1363.91 784.181L1363.96 745.623L1375.75 758.033L1454.17 758.131L1461.77 745.746L1469.33 771.919L1442.98 771.885V772.115C1461.1 775.124 1466.78 789.13 1469.49 813Z" fill="#7AA0B2"/>
<mask id="mask1" mask-type="alpha" maskUnits="userSpaceOnUse" x="1363" y="829" width="147" height="103">
<path fill-rule="evenodd" clip-rule="evenodd" d="M1363.2 829.671H1509.17V931.341H1363.2V829.671Z" fill="white"/>
</mask>
<g mask="url(#mask1)">
<path fill-rule="evenodd" clip-rule="evenodd" d="M1363.2 931.341L1363.43 896.915L1372.44 906.157L1435.91 873.317C1428.16 865.23 1416 856.197 1404.19 856.113L1375.73 855.917L1363.63 868.229L1363.9 829.671L1375.83 842.147L1494.3 842.968L1501.97 830.627L1509.17 856.839L1414.1 856.184C1422.09 858.761 1442.04 870.377 1459.3 904.465L1468.84 898.102L1468.62 929.085C1459.7 908.138 1455.55 898.472 1444.9 883.936L1373.81 920.856L1363.2 931.341Z" fill="#7AA0B2"/>
</g>
<path fill-rule="evenodd" clip-rule="evenodd" d="M1371.97 949.08C1377.21 949.649 1380.91 954.668 1380.29 960.371C1379.66 966.077 1374.98 970.182 1369.74 969.613C1364.5 969.044 1360.8 964.025 1361.42 958.321C1362.04 952.616 1366.73 948.511 1371.97 949.08Z" fill="#7AA0B2"/>
<path fill-rule="evenodd" clip-rule="evenodd" d="M136.088 888.095L11.8699 888.467L0 876.112L0.122826 914.666L11.9141 902.237L136.133 901.865L148 914.222L147.88 875.666L136.088 888.095Z" fill="#7AA0B2"/>
</svg>
