<svg xmlns="http://www.w3.org/2000/svg" viewBox="0 0 394.35 394.35"><defs><style>.cls-1{fill:#f3eee8;stroke-width:5.99px;}.cls-1,.cls-2,.cls-3{stroke:#000;stroke-miterlimit:10;}.cls-2{fill:none;stroke-width:4.61px;}</style></defs><title>smile 02</title><g id="Слой_2" data-name="Слой 2"><g id="Text"><circle class="cls-1" cx="197.17" cy="197.17" r="194.18"/><path class="cls-2" d="M264.74,174.23c0,23.34-26.9,53.23-67.57,53.23s-67.57-31.05-67.57-53.23"/><path class="cls-3" d="M32.14,259.12l25.52-10.36-2.54-6.25,2.74-1.11L64,256.59l-2.74,1.11-2.53-6.24L33.23,261.81Z"/><path class="cls-3" d="M44.74,285.27l25.39-16.9,1.61,2.42-11.45,7.62,7.12,10.69,11.44-7.62,1.62,2.42-25.4,16.9-1.61-2.42L65,290.73l-7.12-10.68-11.48,7.64Z"/><path class="cls-3" d="M69.06,317.3l21.43-21.71L101,306,99,308.1l-8.48-8.36-7.58,7.68,5.95,5.87-2.08,2.1-6-5.87-7.61,7.72,8.09,8-2.08,2.1Z"/><path class="cls-3" d="M116.72,344.68l1.25-2.53,2.61,1.29L119.33,346a4.82,4.82,0,0,0,2.32,6.48,4.94,4.94,0,0,0,6.65-2.21c1.2-2.44.09-5.09-1.65-7.09l-1.26-1.52c-2.61-3-3.77-6.87-2.09-10.28a7.88,7.88,0,1,1,14.13,7l-1.15,2.31-2.61-1.28,1.15-2.32a5,5,0,0,0-8.91-4.39c-1.18,2.4,0,5.06,1.67,7.05l1.27,1.51c2.6,3,3.76,6.88,2.06,10.33a7.9,7.9,0,0,1-10.57,3.58A7.71,7.71,0,0,1,116.72,344.68Z"/><path class="cls-3" d="M150.5,366.68l7.25-26.57-6.51-1.77.78-2.85,15.81,4.31-.77,2.85-6.51-1.77-7.24,26.56Z"/><path class="cls-3" d="M179.32,364,180.75,342l2.9.19-1.42,22.05a5.33,5.33,0,1,0,10.64.68l1.42-22.05,2.9.19-1.42,22.05A8.24,8.24,0,1,1,179.32,364Z"/><path class="cls-3" d="M216.84,372.53l-4.51-30.17,2.92-.43a15.25,15.25,0,0,1,4.51,30.16Zm2.44-3.36a12.29,12.29,0,0,0-3.64-24.31Z"/><path class="cls-3" d="M253.15,364.67l-9.66-28.92,2.76-.92,9.66,28.92Z"/><path class="cls-3" d="M267,343.54a15,15,0,1,1,20.67,5.64A15.2,15.2,0,0,1,267,343.54Zm23.45-13.69a12.13,12.13,0,1,0-4.27,16.78A12.25,12.25,0,0,0,290.47,329.85Z"/><path class="cls-2" d="M124.51,147.79a14.73,14.73,0,1,1,29.45,0"/><path class="cls-2" d="M238.33,147.79a14.73,14.73,0,0,1,29.46,0"/></g></g></svg>