<svg width="768" height="677" viewBox="0 0 768 677" fill="none" xmlns="http://www.w3.org/2000/svg">
<mask id="mask0" mask-type="alpha" maskUnits="userSpaceOnUse" x="0" y="0" width="768" height="677">
<path fill-rule="evenodd" clip-rule="evenodd" d="M0 384C0 171.923 171.923 0 384 0C596.077 0 768 171.923 768 384V676.149H0V384Z" fill="white"/>
</mask>
<g mask="url(#mask0)">
<rect x="-16" y="-3" width="800" height="684" fill="#A0C0CD"/>
<rect x="137" y="87" width="478" height="580" fill="#6B94A5"/>
<path d="M297.7 217.4C298.3 218.6 298.2 220 298.6 221.3C299.4 223.6 300.6 225.8 302.1 227.8C304.5 231 306.8 231.4 310.3 229.4C310.6 229.2 311 229.1 311.4 228.9C311.5 229.8 311.2 230.6 310.7 231.3C309.6 233.1 308.6 234.8 307.5 236.5C307 237.2 306.7 238 306.7 238.9C305 239.7 304.3 241.4 303.3 242.8C299.2 248.4 295.2 254 291.1 259.6C289.9 261.3 289.4 263.9 288 265.5C288 265.2 288 264.3 288 264C288.7 260.6 286.5 259.3 283 259C280.4 258.7 278.1 259.5 276 261C275.6 261.3 273.9 262.7 273.5 263C273.5 262.1 275.3 259.2 275.9 258.5C281 252.1 285.3 245 288.5 237.5C289 236.3 289.9 235.1 289.9 233.7C290.7 232.6 291.4 231.4 291.8 230.1C293.7 226 295.4 221.6 297.7 217.4Z" fill="#83A9B9"/>
<path d="M24 698V303.4C24 123.7 169.7 -22 349.4 -22H364.5C574.1 -22 744 147.9 744 357.5C744 471 744 584.5 744 698H24ZM541.5 562.1L540 562.7C540 561.7 538.6 560.6 537.5 560.5C537.5 560.1 538.8 560.1 538.5 560C538.4 559.6 538.8 558 538.6 557.7C535 551.7 531.6 545.5 528.5 539.2C526.6 535.3 524.9 531.3 522.9 527.6C522.5 526.5 521.8 525.5 520.8 524.7V523.7C519.7 521.7 518.6 519.7 517.5 517.6C512.2 507.3 507.2 496.9 502.6 486.2C502 484.9 501.7 483.4 500.7 482.4C499.5 479.6 498.3 476.8 496.9 474.1C493.6 467.1 489.8 460.3 485.6 453.7C481.2 447 477.6 439.8 474.9 432.2C468.7 415.1 462.6 397.8 456.7 380.6C454.4 373.8 451.4 367.2 449.2 360.4C449.2 360 449 359.7 448.7 359.5C448.7 358.1 448.3 356.6 447.6 355.4L445.7 351.3C444.3 348.3 443 345.3 441.6 342.4C438.6 336.3 434.9 330.7 431.5 324.9C426.3 316.1 420.6 307.7 414.4 299.6C413.3 298.1 412 296.8 410.4 295.8C410 295 409.5 294.3 408.9 293.7C406.1 291.1 403.8 288.1 401.1 285.4C397.9 282.2 394.9 278.8 392.1 275.2C388.5 270.6 385.3 265.7 384.1 259.8C383.3 256.3 382.9 252.6 382.9 249C382.9 244.8 383.2 240.5 382.8 236.3C382.9 232.4 382.8 228.5 381.5 224.9C380.7 222.6 379.6 220.4 378.6 218.2C379.3 217.7 380.2 217.4 381 217.2C382.1 217.3 383.1 217.6 384 218.2C390.6 221.8 395.7 224.7 400.5 226.9C404.5 228.7 408.1 230.7 411.9 232.7C416.9 235.3 421.8 237.8 426.3 241.3C433.5 247 441.3 252 449.4 256.2C453 257.8 456.4 259.7 459.7 261.9C460.1 262.3 460.7 262.4 461.2 262.4C462.8 263.5 464.3 264.7 465.9 265.7C468.7 267.5 471.1 270 472.7 272.9C474 275.6 475.4 278.2 477.1 280.6C477.7 281.5 478.7 282.2 479.7 282.6C480.1 282.7 480.5 282.9 480.8 282.5C481 282.2 481 281.7 480.8 281.4C480.4 280.7 480 280 479.7 279.3C479.3 278.1 478.3 276.7 479.4 275.7C480.7 274.6 481.7 276.1 482.6 276.8C484.8 278.6 486.9 280.6 489.5 281.9C491.6 283.1 494 283.6 496.4 283.4C498 283.3 498.6 282.5 498.5 280.9C498.4 279.8 498 278.9 497.2 278.1C493.7 273.9 489.5 270.5 485.3 267.1C482.9 265 480.3 263.3 477.5 262C473.2 260.1 469.3 257.6 465.7 254.6C464.1 253.2 462.6 251.6 460.5 250.8C460.3 250 459.8 249.4 459 249.1C458.6 248.9 458.1 248.6 457.8 248.3C454.9 245.9 452 243.6 448.9 241.5C443.7 237.9 438.3 234.4 433.2 230.6C428.1 226.8 423.6 222.8 418.7 218.9C415.3 216.2 412.2 213 408.6 210.5C402.8 206.1 397.2 201.6 390.8 198C386.7 195.6 382.4 193.6 377.6 193.3C374.6 193.2 371.6 192.7 368.7 191.9C367.1 191.8 365.6 191 363.9 191.3C363.2 190.7 362.5 190.3 361.6 190.1C359.3 189.3 357.1 188.4 355 187.3C351.4 185.8 348.2 183.3 346 180C345.2 178.9 345 177.5 344.1 176.4C344.1 176.1 344.2 175.7 344.3 175.4C347.7 175.8 351.1 174.9 353.8 172.8C357.6 170.4 360.3 166.7 361.7 162.4C361.9 162.2 362 161.9 361.9 161.6C362.9 154.5 363.5 147.4 361.8 140.2C361 136.4 359.8 132.6 358.4 129C356.9 125.4 354.7 122.3 351.7 119.8C346 114.9 339.1 111.5 331.8 109.8C331.3 109.3 330.7 109.4 330.1 109.5C327.1 108.7 323.9 108.7 320.8 109.5C319.2 109.5 317.6 109.2 316 110C314.9 109.8 313.7 109.9 312.6 110.2L312.2 110.4C312.1 110.5 312 110.5 311.9 110.5C311.1 110.3 310.5 111.5 309.9 112L301.5 112.3L300.5 111.2C297.5 110.5 294.5 109.3 292.4 107C290.1 104.7 287.9 103 285.2 101.1C280.7 97.8 276 95.6 270.5 94.9C269 94.4 267.7 94.6 266.3 95.2C259.3 96.5 254 99.3 251.2 105.8C250.5 107.5 249.6 109.1 248.7 110.7C246.6 114.5 243.4 117.9 239.2 118.6L227.2 118.7C226.4 118.6 225.3 118.3 224.6 118.7C219.7 119.4 215.1 120.1 211.5 123.8C208.7 126.7 206.5 130 204.9 133.7C203.9 133.6 202.8 133.9 201.9 134.4C200 135.3 198.2 136.6 196.7 138.1C194 140.6 191.9 143.7 190.6 147.1C189.5 149.9 187.2 152.2 184.4 153.4C183.8 153.7 183.2 154 182.6 154.3C180.9 155.2 179.1 155.7 177.2 155.7C173.5 155.6 169.9 155.2 166.3 154.5C163.8 154.1 161.2 154 158.7 154.3C156.8 154.4 154.9 155.2 153.5 156.6C149.2 160.7 145.8 165.5 144.8 171.5C143.7 176.9 145.3 182.4 149 186.4C153.9 191.8 160.3 194.6 167.3 196.1C171.1 196.9 174.9 197.4 178.6 198.2C184.1 199.3 189.3 201.6 194.8 203.1C195.6 203.3 196.4 203.7 197 204.2C201.6 207.8 206 211.7 209.9 216C212.1 218.5 214.6 220.8 216.8 223.3C219.3 226.1 222.5 227.2 226 227.8C229.1 228.2 232.2 228.3 235.3 228.2C238 228.1 240.6 229 242.6 230.7C244.5 232.3 246.7 233.5 249.1 234.1C251 234.5 252.9 234.4 254.8 234C260 233 264.5 230.9 267.5 226.2C267.9 225.3 268.5 224.6 269.2 224C269.3 224.3 269.4 224.4 269.4 224.6C269.4 224.9 269.4 225.3 269.4 225.6C268 232.7 263.6 238.8 257.4 242.5C254.5 244.2 251.3 245.4 248.1 246.2C245.5 246.9 243.1 248.1 241.1 249.8C238 252.3 235.5 255.3 233.5 258.7C230.2 264.6 227.2 270.8 224.7 277.1C220.6 287.3 215.6 297 208.6 305.6C203.3 312.2 199.3 319.8 196.8 327.9C195.4 332.7 194.2 337.5 193 342.3C191.3 349.3 188.6 356 184.9 362.2C183.5 364.5 182 366.8 180.3 369C177.2 372.9 174.6 377.1 172.5 381.5C171.5 383.7 170.9 386.2 170.8 388.6C170.6 393.6 171.4 395.4 175 395.4C178 395.5 180.9 393.8 182.1 391C183 389.2 183.8 387.4 184.7 385.6C185.2 384.5 185.8 383.3 186.4 382.2C186.7 381.7 187 381.2 187.7 381.3C188.4 381.4 188.5 382 188.5 382.6C188.5 382.8 188.5 383.1 188.5 383.3C188.6 384.1 188.3 385.4 189.4 385.5C190.7 385.6 190.5 384.2 190.7 383.3C191.2 381 191 378.5 191.4 376.2C192.3 370.3 193.8 364.7 197 359.5C197.7 358.3 198.4 357 199 355.7C202.5 348.5 206.6 341.6 210.4 334.6C213.8 328.5 216.9 322.3 219.4 315.8C220.1 313.9 220.3 311.7 221.5 310C224 306.5 226.6 303 229.1 299.5C233.1 293.8 237.4 288.4 241 282.4C242.2 280.3 243.4 278.3 244.7 276.2C245.5 274.9 245.9 274.9 246.6 276.3C247 277.1 247.4 277.9 247.7 278.7C249.5 283.2 251.2 287.6 253.2 292C254.7 295.2 256.7 298.1 258 301.4C256.9 305.4 255.5 309.3 253.7 313.1C253 314.8 252.1 316.4 250.9 317.8C248.6 320.7 246.3 323.7 244.1 326.7C241.7 330 239.8 333.6 238.3 337.4C237.1 340.4 236.9 343.7 237.6 346.8C237.9 348.3 239.2 349.3 240.7 349.3C244.2 349.7 247.6 347.7 249 344.5C249.7 343.1 250.2 341.7 250.8 340.3C251.4 338.9 252.2 337.4 252.9 336C253.1 335.6 253.4 335.1 254 335.2C254.4 335.3 254.7 335.7 254.7 336.1C254.8 336.6 254.8 337.2 254.8 337.8C254.8 338.4 254.9 339.1 255 339.7C255.1 340.4 255.7 340.8 256.3 340.9C256.9 340.9 257.4 340.5 257.6 340C258 339.1 258.2 338.2 258.2 337.2C258.2 335.4 258.2 333.7 258.2 331.9C258.1 324.2 260.9 317.4 264.9 311C267.8 314.9 270.3 319.1 272.3 323.6C275.9 331.9 277.6 340.9 277.4 349.9C277.3 354.5 277.2 359 277.4 363.6C277.5 367 277.4 370.5 277.6 373.9C277.8 376.4 278.2 379 278.4 381.5C278.7 386.3 279.3 391 280.2 395.7C281.3 402 282.9 408.2 285 414.2C287.6 422.3 291.4 430 295 437.7C299.3 447 303.9 456.1 308.8 465.1C311.5 470 314.2 474.9 317.3 479.5C321.2 485.1 324.9 490.7 328.8 496.3C334.8 504.8 340.7 513.4 347.1 521.7C348.8 523.8 350.2 526.1 351.5 528.5C356.4 537.6 361.5 546.6 366.8 555.5C372.7 565.5 379.1 575.3 385.9 584.7C394 595.7 402.5 606.5 410.8 617.5C414.9 623 417.8 629.1 420.8 635.2C422.2 638.1 423.9 640.8 425.9 643.3C428.3 646.1 431.4 648.2 435 649.3C439.3 650.7 443.7 650.2 448.1 650.2C448.5 650.2 448.9 650.1 449.3 649.9C450.8 649.5 451.9 648.1 451.8 646.5C451.8 645.5 451.6 644.6 451.1 643.7C450.1 641.4 448.9 639.3 447.6 637.2C444.7 632.9 441.4 628.8 437.8 625.1C433.4 620.4 429 615.8 424.8 611C419.2 604.8 414.8 597.5 411.8 589.7C409.9 584.6 407.8 579.6 405.4 574.7C400.2 564.5 394.6 554.5 389.5 544.3C385.8 536.8 381.3 529.7 377.3 522.3C373.8 515.9 370.6 509.4 367.9 502.6C364.7 494.3 361.1 486.2 357.7 478C353.4 467.7 349 457.4 344.6 447.1C341.9 440.8 339.2 434.5 336.6 428.1C333.8 421.3 330.5 414.7 327.5 408C326.6 406 325.7 404 326 401.8C326.1 400.3 327.4 398.6 328.6 398.4C329.6 398.2 330.8 399 331.5 400.6C333.6 405.7 336.3 410.5 338.5 415.4C343.8 427.1 349.8 438.5 356.3 449.5C362.5 460 367.8 471 374.3 481.4C379.2 489.2 383.7 497.2 389.4 504.4C396.3 513.1 402.1 522.6 406.9 532.7C411.6 542.4 416.1 552.2 420.8 561.9C426.2 573 433.4 582.8 440.9 592.5C446.1 599.2 451.9 605.4 456.9 612.3C461.7 618.8 466.5 625.3 470.1 632.5C473.7 639.7 477.6 647.1 481.8 654.2C483 656.4 484.6 658.5 486.5 660.2C488.4 662 491.4 662.3 493.5 660.8C495.2 659.7 496.8 658.5 498.3 657.2C499.3 656.3 500 655.1 500.3 653.7C501.4 647.4 500.6 641.4 497.2 635.9C492.7 628.9 487.6 622.4 481.9 616.3C479.2 613.3 476.4 610.4 474 607.3C470.6 602.6 467.6 597.7 465.1 592.5C460.3 583.3 456 573.8 450.9 564.7C445.8 555.6 441.3 546.2 437.3 536.5C435.7 532.6 433.7 528.9 431.9 525.1C427.8 516.1 423.5 507.2 417.8 499C414.5 494.1 412.1 488.6 409.7 483.1C407.6 478.2 405.7 473.2 404.1 468.1C403.1 465.1 401.7 462.2 401.2 459C402 459.4 402.3 460.2 402.7 460.8C405.6 464.6 408.1 468.7 411.3 472.3C411.4 472.7 411.8 473 412.2 473C412.6 473.2 413 473.4 413.2 473.8C413.3 474.7 413.6 475.5 414.2 476.2C415.8 478.5 417.2 481 418.5 483.5C419.5 485.6 420.6 487.7 421.8 489.7C427.7 499.6 433.2 509.7 439.4 519.4C447 531.2 455.1 542.7 463.9 553.6C469 560 473.5 566.9 478.6 573.3C480.8 576.1 482.1 579.4 483.8 582.5C485.2 585.4 487.2 588.2 489 591C489.4 592.3 490.6 593.5 491.5 594.5C493.8 598.1 496.6 600.5 500.5 602C505.4 603.8 510 604 515 603.5C516.4 603.5 517.6 602.4 517.8 601C518 599.9 517.9 598.8 517.5 597.7C514.6 591.3 511.1 585.2 505.4 580.8C505.4 579.4 504.4 578.7 503.5 577.9C497.9 572.4 492.6 566.7 487.7 560.6C483.8 555.6 480.7 550.1 478.4 544.3C475.7 537.7 473 531.2 469.7 524.9C464.7 515.2 459.3 505.7 454.7 495.8C454.1 494.6 453.5 493.4 452.8 492.3C446.6 481.8 440.6 471.2 435.7 460C435.1 458.5 434.8 456.9 433.8 455.7L433.6 455.2C432.9 452.9 432.1 450.6 431.2 448.4C427.3 439.4 423.5 430.4 419.6 421.3C411.2 401.8 403.5 382 394.4 362.8C393 359.8 391.1 356.7 392 353C393.2 351.8 396.6 349.8 398.5 350.5C400.5 355.2 401.9 359.9 404 364.5C408.5 374.3 414.7 383.6 420 393C425.4 402.6 429.8 412.3 435 422C439.2 429.9 442.3 438.3 447.2 445.8C449.6 449.4 452.8 452.8 455.5 456C459.1 460.4 462.5 464.7 465.5 469.5C467 471.9 468.9 474.6 470.5 477L472 477.5C472 477.9 471.6 478.8 472 479C472 479.6 470.6 480 471 480.5C473.9 486.2 477.3 492.2 480 498C483.4 505.3 485.7 512.6 489.3 519.8C490.6 522.6 492.1 525.2 493.9 527.6L494.4 528.1C495.2 530.3 496.8 532 498.2 533.9C501.9 539.2 505.7 544.4 509.8 549.4C515 555.6 520.3 561.8 525 568.4C526.4 570.4 527.6 572.6 529.5 574.2L530 574.7C530 575.1 530.2 575.5 530.5 575.7C530.5 576.1 530.7 576.5 531 576.7C531.5 577.4 532 578.2 532.4 578.9C536 584.9 539.2 591 542.4 597.2C544.7 602 547.4 606.7 550.4 611.1C551.1 612.2 552.1 613.3 553.1 614.1C555.6 615.9 557.6 616.1 560.1 614.4C561.4 613.5 562.7 612.5 564 611.6C565.4 610.6 566.4 609.1 566.7 607.5C567.9 601.9 567.1 596.1 564.5 591.1C562.6 587.6 560.4 584.3 557.8 581.2C552.7 574.7 547.3 568.5 541.6 562.7L541.5 562.1Z" fill="#9FC0CD"/>
<path d="M326.101 256.9C324.201 253.6 322.501 250.1 321.101 246.5C321.201 244.6 320.301 243 320.101 241.1C319.401 236.1 319.901 231.1 320.301 226.1C320.801 220.5 320.601 214.8 319.801 209.2C319.301 205.8 318.501 202.5 317.301 199.3L321.101 197.9C324.101 206.9 328.901 214.5 336.401 220.5C338.801 222.5 341.701 223.8 344.801 224.3C346.101 224.9 347.601 224.9 348.901 224.3C349.901 224.3 351.001 224.1 351.901 223.6C355.001 222.1 357.601 219.8 359.401 216.8C362.201 212.3 363.301 207.3 363.901 202.1C364.401 198.4 364.101 194.8 364.301 191.1C365.901 190.9 367.501 191.6 369.101 191.7C368.801 194.5 369.201 197.3 370.101 199.9C372.401 206.2 375.301 212.2 378.701 218C379.701 220.2 380.801 222.4 381.601 224.7C383.001 228.4 383.001 232.3 382.901 236.2C382.201 236.5 382.101 237.1 382.001 237.8C381.401 241.6 380.201 245.3 378.601 248.8C378.101 249.9 377.601 251 377.201 252.1C375.601 256.6 375.001 261.3 375.301 266C375.401 271.9 377.501 277.5 381.201 282.1C382.701 284 384.301 285.8 386.701 286.5C389.701 287.4 391.701 289.5 393.501 292C395.401 294.7 396.801 297.7 397.701 300.8C398.701 304.2 400.201 307.4 402.101 310.3C403.801 312.8 405.601 315.3 408.201 316.9L408.49 317.45C407.29 320.95 406.7 324.6 405.8 328.2C404.2 334.4 402.1 340.6 399.6 346.5C399.1 348 398.4 349.9 397 351.2C395 350.5 393.7 351.8 392.5 353C390.7 352.9 388.901 352.9 387.101 352.7C381.201 352 375.3 350.6 370.2 347.5C361.6 342.3 353.901 335.7 347.301 328.1C346.401 327.1 345.801 325.8 344.601 325.1C344.501 323.2 344.501 321.2 344.701 319.3C344.901 319.3 344.8 319.1 345 319C348.5 315.9 351.9 312.9 354.6 309C356.4 306.3 357.201 302.9 356.301 299.8C355.601 296.9 354.601 294.1 353.201 291.6C352.001 289.4 351.3 286.8 351.4 284.2C351.4 282.6 351.301 281 350.901 279.5C348.801 271.8 344.301 266.2 336.501 263.8C333.701 263 331.201 261.5 329.201 259.5C328.601 258.8 328.001 258 326.901 258L326.501 257.4L326.101 256.9Z" fill="white"/>
<path d="M397 351.2C398.4 349.9 399 348.1 399.6 346.4C402.1 340.5 404.1 334.4 405.8 328.2C406.7 324.6 407.3 320.9 408.5 317.4C413.7 321.7 419 325.9 424 330.4C432.9 338.3 440.9 347 447.2 357.2C447.7 358 448 359 448.8 359.5C448.8 359.9 449 360.2 449.3 360.4C451.4 367.3 454.4 373.8 456.8 380.6C462.6 397.8 468.7 414.9 474.9 431.9C477.5 439.3 480.9 446.4 485.2 453C489.6 459.8 493.5 466.8 497 474.1C498.4 476.8 499.5 479.6 500.8 482.4C500.8 483.1 500.8 483.8 500.7 484.5C500.6 487.9 498.8 489.8 495.4 490C493.8 490.1 492.2 490 490.6 489.8C484.8 488.8 479.9 486 475.2 482.6C473.6 481.4 472.4 479.7 470.6 478.9V479C470.6 478.6 470.4 478.2 470 478.1L469.5 477.5C468 475.1 466.4 472.6 464.9 470.2C461.9 465.4 458.6 460.8 455 456.4C452.6 453.3 450.4 450 448.4 446.7C443.7 439.4 439.1 432 435 424.3C430.1 415.1 425 406.1 419.9 397.1C413.8 386.3 408.4 375.2 403.1 364C401 359.7 398.8 355.5 397 351.2Z" fill="#AA7356"/>
<path d="M344.601 325C345.801 325.7 346.401 327 347.301 328C353.901 335.6 361.601 342.2 370.201 347.5C375.301 350.6 381.101 352 387.001 352.7C388.801 352.9 390.701 352.9 392.501 353C391.601 356.7 393.501 359.7 394.901 362.8C404.001 382 411.701 401.8 420.101 421.3C423.901 430.3 427.801 439.4 431.701 448.4C432.601 450.6 433.401 452.9 434.101 455.2C434.001 455.4 434.101 455.6 434.301 455.7C434.201 456.7 434.401 457.8 434.601 458.8C435.601 462.5 435.401 466.5 434.201 470.1C432.301 475.4 428.101 478 422.401 477.1C419.301 476.6 416.401 475.5 413.701 473.9C413.501 473.5 413.101 473.2 412.701 473.1C412.501 472.8 412.201 472.5 411.801 472.4C408.601 468.9 406.101 464.7 403.201 460.9C402.701 460.3 402.401 459.5 401.701 459.1L401.201 458.4C399.101 454.9 396.901 451.5 394.401 448.3C387.301 438 380.101 427.7 374.301 416.5C369.901 408.1 365.501 399.6 361.501 391C358.401 384.4 355.201 377.9 352.801 371C349.901 362.5 347.301 354 346.401 345C346.401 344.4 346.201 343.9 345.901 343.4C345.701 340.8 345.501 338.2 345.201 335.6C345.001 332 344.401 328.5 344.601 325Z" fill="#AA7356"/>
<path d="M413 473C415.6 474.6 419.401 476.4 422.501 476.9C428.101 477.8 432.401 475.3 434.301 469.9C435.601 466.3 435.701 462.3 434.701 458.6C434.401 457.6 434.301 456.6 434.401 455.5C435.401 456.8 435.701 458.4 436.301 459.8C441.301 470.9 447.001 481.6 453.301 491.9C454.201 493.4 455.001 495 455.701 496.6C460.201 506.1 465.501 515.3 470.301 524.6C473.501 530.9 476.301 537.5 479.001 544C481.301 549.9 484.401 555.4 488.301 560.4C493.201 566.5 498.4 572.5 504 578C504.8 578.8 505.5 580 506 581C504 579.8 501.8 579.1 499.5 578.5C495.872 577.785 492.995 578.824 491 581C489.366 582.782 488.205 585.328 488.701 588.3C488.801 589.1 489.4 591.3 489.5 592C487.5 590 485 585.5 483.5 582.5C481.8 579.4 480.5 576 478.5 573C473 566.5 469.1 560.4 464 554C454.599 544.4 447.1 531.3 439.5 519.5C432.599 510.6 427.9 499.9 422 490C420.8 487.9 419.5 485.6 418.5 483.5C417.3 480.9 415.1 477.4 413.5 475C413 474.8 413.1 473.9 413 473Z" fill="#83A9B9"/>
<path d="M470.002 478.5C471.902 479.3 473.002 481 474.602 482.2C479.302 485.6 484.7 488.9 490.5 489.9C492.1 490.2 493.7 490.2 495.3 490.1C498.7 489.9 500.5 488 500.6 484.6C500.6 483.9 500.601 483.2 500.701 482.5C501.701 483.6 502 485 502.6 486.3C507.2 496.9 512.3 507.3 517.5 517.7C518.6 519.7 519.7 521.8 520.8 523.8C520.5 523.9 520.4 524.2 520.5 524.5C520.6 524.6 520.7 524.7 520.8 524.8L521.1 526.7C521.4 528.8 521.2 530.9 520.3 532.8C519.3 535.3 516.1 536.6 512.8 536.1C508 535.4 503.7 533.3 499.6 530.9C498.1 529.8 495.002 528 494.502 528L494.002 527.5C493.502 527 490.502 523 489.502 520C485.902 512.8 482.402 505.8 479.002 498.5C476.302 492.7 473.302 486.1 470.402 480.4C470.102 479.8 470.002 479.1 470.002 478.5Z" fill="#83A9B9"/>
<path d="M364.3 191.1C364.1 194.8 364.4 198.4 363.9 202.1C363.2 207.3 362.2 212.3 359.4 216.8C357.6 219.8 355 222.1 351.9 223.6C351 224.1 349.9 224.3 348.9 224.3H344.8C341.7 223.8 338.8 222.5 336.4 220.5C329 214.6 324.1 206.9 321.1 197.9C321.6 197.5 322.1 197.1 322.7 196.9C325.7 195.5 328.4 193.3 330.5 190.7C331.8 190.4 333 189.7 333.9 188.7C337.5 185.4 340.6 181.7 343.2 177.6C343.5 177.1 343.9 176.3 344.6 176.2C345.5 177.3 345.6 178.7 346.4 179.9C348.6 183.1 351.8 185.7 355.4 187.2C357.5 188.3 359.7 189.2 362 190C362.9 190.1 363.6 190.5 364.3 191.1Z" fill="#AA7457"/>
<path d="M258.4 301C259.3 298.4 260.1 295.7 260.7 293C262.4 286.7 263.8 280.3 266.4 274.3C268.3 270 270.2 265.7 273.7 262.4L274.9 261.3C275 261.3 275.1 261.2 275.2 261.1C275.6 260.9 276 260.6 276.4 260.3C278.6 258.8 281.2 258.1 283.9 258.4C287.4 258.7 289 260.8 288.3 264.2C288.2 264.5 288.2 264.8 288.2 265.1C286.5 270.1 284.5 275 282.2 279.7C280 284.5 277.2 289 274.7 293.6C271.6 299.3 268.3 304.9 265.6 310.7C261.6 317.1 258.8 323.8 258.9 331.6C258.9 333.4 258.9 335.1 258.9 336.9C258.9 337.9 258.7 338.8 258.3 339.7C258.1 340.3 257.6 340.6 257 340.6C256.3 340.6 255.8 340.1 255.7 339.4C255.6 338.8 255.5 338.1 255.5 337.5C255.5 337 255.5 336.4 255.4 335.8C255.4 335.4 255.1 335 254.7 334.9C254.1 334.8 253.9 335.3 253.6 335.7C252.9 337.1 252.2 338.5 251.5 340C250.8 341.5 250.3 342.8 249.7 344.2C248.3 347.5 244.9 349.4 241.4 349C239.9 349 238.6 347.9 238.3 346.5C237.5 343.4 237.8 340.1 239 337.1C240.4 333.3 242.4 329.7 244.8 326.4C247 323.4 249.3 320.4 251.6 317.5C252.7 316 253.7 314.5 254.4 312.8C255.9 308.9 257.3 305 258.4 301Z" fill="#AA7457"/>
<path d="M542.099 562.7C547.899 568.6 553.299 574.8 558.299 581.2C560.799 584.3 563.099 587.6 564.999 591.1C567.599 596.1 568.399 601.9 567.199 607.4C566.899 609.1 565.899 610.5 564.499 611.5C563.199 612.4 561.899 613.4 560.599 614.3C557.999 616 556.099 615.8 553.599 614C552.499 613.2 551.599 612.1 550.899 611C547.899 606.6 545.199 601.9 542.899 597.1C539.699 590.9 536.399 584.8 532.899 578.8C532.399 578 531.899 577.3 531.499 576.6C531.499 576.2 531.299 575.8 530.999 575.6C530.999 575.2 530.799 574.8 530.499 574.6C530.499 574.3 530.299 574.1 529.999 574.1C529.899 573.1 529.599 572.1 528.999 571.2C526.999 567.3 525.799 563.1 525.299 558.7C525.099 557.4 525.199 556 525.499 554.7C526.099 552.9 527.099 552.3 528.999 552.8C529.799 553 530.699 553.3 531.399 553.7C533.199 554.6 534.899 555.8 536.399 557.2C537.099 557.9 537.799 558.7 538.999 558.7C538.899 559.1 539.099 559.5 539.499 559.6C539.699 560.4 540.199 561.1 540.999 561.5L541.499 562C541.599 562.4 541.799 562.6 542.099 562.7Z" fill="#AA7356"/>
<path d="M461.394 262.1C461 262.5 460.4 262.3 460 262C456.7 259.8 453.1 257.85 449.5 256.25C441.3 252.05 433.2 246.85 426 241.05C421.5 237.55 417.094 235.4 412.094 232.8C409.494 231.4 406.5 230 403.9 228.5C396.9 225.2 390.2 221.9 383.5 218C382.7 217.6 381 217.5 380.5 217C382.4 215.3 385.594 214.6 387.994 215.1C389.294 215.3 390.594 215.8 391.894 216.2C394.794 217.1 397.894 217.5 400.894 217.3C406.094 216.8 408.594 215.1 408.894 210.3C412.494 212.9 415.594 216 418.994 218.7C423.794 222.6 428.394 226.8 433.494 230.4C438.494 234 443.994 237.6 449.194 241.3C452.194 243.3 454.994 245.6 457.694 247.8C458.294 248.2 458.894 248.6 459.494 249C460.194 249.3 461.194 250 461.394 250.7C459.394 251.7 458.294 252.7 458.594 255C459.094 257.8 459.994 259.8 461.394 262.1Z" fill="#83A9B9"/>
<path d="M408.199 316.9C405.499 315.3 403.699 312.9 402.099 310.3C400.199 307.3 398.699 304.1 397.699 300.8C396.799 297.7 395.299 294.7 393.499 292C391.699 289.6 389.699 287.5 386.699 286.5C384.299 285.8 382.599 283.9 381.199 282.1C377 277 375.5 272.5 375.299 266C374.999 261.3 375.599 256.6 377.199 252.1C377.599 251 378.099 249.9 378.599 248.8C380.199 245.3 381.29 241.6 381.99 237.9C382 237.3 382.1 236.5 382.899 236.2C383.299 240.4 382.999 244.8 382.999 249C382.999 252.7 383.499 256.3 384.299 259.9C385.399 265.4 388.299 270 391.599 274.3C394.799 278.4 398.199 282.3 401.899 286C404.299 288.5 406.499 291.3 409.099 293.7C409.699 294.3 410.199 295.1 410.599 295.8C410.599 302.9 409.399 309.9 408.199 316.9Z" fill="#DCE9EE"/>
<path d="M409 210.8C408.6 215.7 406.1 216.9 401 217.3C398 217.5 394.9 217.1 392 216.2C390.7 215.8 389.4 215.4 388.1 215.1C385.6 214.5 383.1 215.2 381.2 216.9C380.5 217.5 379.5 218 378.71 218.1C375.31 212.4 372.5 206.1 370.2 199.8C369.3 197.2 368.9 194.3 369.2 191.6C372.1 192.4 375.1 192.9 378.1 193C382.9 193.3 387.2 195.3 391.3 197.7C397.5 201.4 403.2 206.5 409 210.8Z" fill="#AA7457"/>
<path d="M542.1 562.7C540.9 562.7 537.2 558 536.4 557.3C534.9 555.9 533.2 554.7 531.4 553.8C530.6 553.4 529.8 553.1 529 552.9C527.1 552.4 526.1 553.1 525.5 554.8C525.1 556.1 525.1 557.5 525.3 558.8C525.8 563.2 527 567.4 529 571.3C529.6 572.2 529.9 573.2 530 574.2C528.1 572.6 526.9 570.4 525.5 568.4C520.7 561.8 515.4 555.7 510.3 549.4C506.2 544.4 502.4 539.2 498.7 533.9C497.4 532 495.8 530.3 494.9 528.1C496.6 528.8 498.2 529.7 499.7 530.8C503.8 533.2 508.1 535.3 512.9 536C516.2 536.5 519.4 535.2 520.4 532.7C521.2 530.8 521.5 528.7 521.2 526.6L520.9 524.7C521.8 525.5 522.5 526.5 523 527.6C525.1 531.4 526.7 535.4 528.6 539.2C531.7 545.5 535 551.7 538.7 557.7C538.8 558.1 542 562.3 542.1 562.7Z" fill="#6B94A5"/>
<path d="M408.199 316.9C409.399 309.9 410.599 302.9 410.499 295.8C412.299 297 413.799 298.5 414.999 300.3C421.099 308.4 426.799 316.9 432.099 325.7C435.399 331.3 438.899 336.7 441.699 342.5C443.099 345.4 444.499 348.4 445.799 351.4L447.699 355.5C448.399 356.8 448.799 358.2 448.799 359.6C447.899 359 447.699 358.1 447.199 357.3C440.899 347.1 432.899 338.4 423.999 330.5C418.899 326 413.699 321.7 408.499 317.5C408.399 317.2 408.299 317.1 408.199 316.9Z" fill="#83A9B9"/>
<path d="M489.199 591C489.099 590.2 488.899 589.4 488.799 588.7C487.699 582.1 493.099 576.9 499.699 578.3C501.899 578.9 504.099 579.8 506.099 581C511.899 585.4 515.299 591.4 518.199 597.9C518.599 599 518.699 600.1 518.499 601.2C518.299 602.6 517.099 603.7 515.699 603.7C510.699 604.2 505.699 604.5 500.799 602.7C496.799 601.1 493.499 598.4 491.199 594.8C490.199 593.5 489.599 592.3 489.199 591Z" fill="#AA7457"/>
<path d="M461.401 262.1C460.001 259.8 458.501 257.5 458.001 254.8C457.601 252.5 458.401 251.3 460.801 250.7C462.901 251.5 464.301 253.2 466.001 254.5C469.501 257.5 473.501 260 477.701 261.9C480.501 263.2 483.101 264.9 485.501 267C489.701 270.4 494.001 273.8 497.401 278C498.101 278.8 498.601 279.7 498.701 280.8C498.801 282.4 498.201 283.2 496.601 283.3C494.201 283.5 491.801 282.9 489.701 281.8C487.101 280.4 485.101 278.4 482.801 276.7C481.801 276 480.801 274.5 479.601 275.6C478.501 276.6 479.501 278 479.901 279.2C480.201 279.9 480.601 280.6 481.001 281.3C481.201 281.6 481.201 282.1 481.001 282.4C480.701 282.8 480.301 282.6 479.901 282.5C478.801 282.1 477.901 281.4 477.301 280.5C475.701 278 474.201 275.5 472.901 272.8C471.301 269.8 469.001 267.3 466.101 265.6C464.501 264.4 463.001 263.2 461.401 262.1Z" fill="#AA7457"/>
<path d="M344.6 176.2C343.9 176.3 343.6 177 343.3 177.5C340.7 181.6 338.5 185.5 334 188.6C333.1 189.6 332 190.5 330.5 190.7C330.7 189.9 331 189 331 188C331 187.5 331.5 187.5 331.5 187C332 186.5 332 186.8 332 186.5C332.7 184.3 332.6 182.3 332.5 180.1C332.3 176.9 331.7 173.8 330.7 170.8C332.1 170.7 333.4 171 334.7 171.4C336.2 171.8 337.7 171.9 339.2 171.6C340.9 171.4 342.5 171.2 344.2 171.2C344.4 172.5 344.6 173.8 344.8 175C344.7 175.6 344.6 175.9 344.6 176.2Z" fill="#9D562D"/>
<path d="M270.7 94.1H266C267.5 93.5 269.2 93.5 270.7 94.1Z" fill="#010101"/>
<path d="M449.301 360.5C449.001 360.3 448.801 360 448.801 359.6C449.101 359.8 449.301 360.1 449.301 360.5Z" fill="#83A9B9"/>
<path d="M411.9 472.2C412.3 472.3 412.6 472.5 412.8 472.9C412.4 472.9 412.1 472.6 411.9 472.2Z" fill="#83A9B9"/>
<path d="M469.9 478.1C470.3 478.3 470.5 478.6 470.5 479C470.1 478.9 469.9 478.5 469.9 478.1Z" fill="#83A9B9"/>
<path d="M520.8 524.7C520.5 524.6 520.4 524.3 520.5 524C520.6 523.9 520.7 523.8 520.8 523.7V524.7Z" fill="#6B94A5"/>
<path d="M530.4 574.6C530.7 574.8 530.9 575.2 530.9 575.6C530.6 575.4 530.4 575 530.4 574.6Z" fill="#6B94A5"/>
<path d="M530.9 575.6C531.2 575.8 531.4 576.2 531.4 576.6C531.1 576.3 530.9 576 530.9 575.6Z" fill="#6B94A5"/>
<path d="M362 162.3C361.9 162 362 161.7 362.2 161.5C362.3 161.8 362.2 162.1 362 162.3Z" fill="#6B94A5"/>
<path d="M434.399 455.6C434.199 455.5 434.099 455.3 434.199 455.1C434.199 455.3 434.299 455.5 434.399 455.6Z" fill="#83A9B9"/>
<path d="M469.5 477.6L470 478.2L469.5 477.6Z" fill="#83A9B9"/>
<path d="M494.4 527.6L494.9 528.1L494.4 527.6Z" fill="#6B94A5"/>
<path d="M541.5 562.2L541 561.7L541.5 562.2Z" fill="#6B94A5"/>
<path d="M542.1 562.7C541.8 562.6 541.6 562.4 541.5 562.2L542.1 562.7Z" fill="#6B94A5"/>
<path d="M529.9 574.1C530.1 574.2 530.3 574.4 530.4 574.6L529.9 574.1Z" fill="#6B94A5"/>
<path d="M344.6 325C344.4 328.5 345 332 345.3 335.5C345.5 338.1 345.8 340.7 346 343.3C342.3 339.9 338.8 336.3 335.6 332.4C334.9 331.5 334.1 330.7 333.3 329.9C329.1 325.8 325.4 321.3 322.2 316.4C318.8 311.3 317.3 305.6 316.6 299.5C315.8 291.9 316.4 284.3 316.2 276.8C316.1 274 315.4 271.3 314.1 268.8C313.3 267.5 312.9 266 312.9 264.5C313.1 262.9 313.9 262.3 315.3 263C317.5 264 319.7 265.2 321.9 266.4C326.4 269 331 271.3 335.8 273.5C336.3 273.7 337.05 274.1 337.65 273.8C339.35 277.1 340.6 280.6 341.7 284.1C344 291.1 344.2 298.3 344.6 305.6C344.8 310.2 344.7 314.8 344.7 319.5C344.6 321.2 344.5 323.1 344.6 325Z" fill="#9FC0CD"/>
<path d="M317.299 199.3C318.499 202.5 319.299 205.8 319.799 209.2C320.599 214.8 320.799 220.5 320.299 226.1C319.799 231.1 319.399 236.1 320.099 241.1C320.299 242.9 321.199 244.6 321.099 246.5C319.999 244.5 318.899 242.6 317.699 240.6C316.599 237.1 315.299 233.8 313.799 230.4C313.399 229.6 313.199 228.5 311.899 228.6C311.599 228.6 311.399 228.8 311.399 229C310.999 229.2 310.599 229.3 310.299 229.5C306.799 231.6 304.499 231.1 302.099 227.9C300.599 225.9 299.399 223.8 298.599 221.4C298.199 220.1 298.199 218.7 297.699 217.5C299.899 212.7 302.599 208.1 306.599 204.6C309.599 201.8 313.099 199.7 317.299 199.3Z" fill="#AA7457"/>
<path d="M344.701 319.3C344.701 314.7 344.801 310.1 344.601 305.4C344.301 298.2 344.101 290.9 341.701 283.9C340.601 280.3 339.201 276.9 337.501 273.5C335.601 269.6 333.201 266 330.301 262.8C328.901 261.3 327.701 259.6 326.801 257.7C327.901 257.7 328.501 258.6 329.101 259.2C331.101 261.3 333.601 262.8 336.401 263.5C344.201 265.9 348.701 271.5 350.801 279.2C351.201 280.7 351.401 282.3 351.401 283.9C351.301 286.5 351.901 289 353.101 291.3C354.501 293.9 355.601 296.7 356.201 299.5C357.101 302.6 356.601 306 354.801 308.7C352.201 312.7 348.701 315.8 345.101 318.9C345.001 319.3 344.901 319.3 344.701 319.3Z" fill="#DCE9EE"/>
<path d="M306.801 239C306.801 238.1 307.001 237.3 307.601 236.6C308.701 234.9 309.701 233.1 310.801 231.4C311.301 230.7 311.601 229.8 311.501 229L312.001 228.6C313.301 228.5 313.501 229.6 313.901 230.4C315.401 233.7 316.701 237.1 317.801 240.6C314.201 239.5 310.501 239 306.801 239Z" fill="#9EBFCC"/>
<path d="M401.301 458.2L401.801 458.9L401.301 458.2Z" fill="#9FC0CD"/>
<path d="M326.1 256.9L326.4 257.3C326.3 257.2 326.1 257.1 326.1 256.9Z" fill="#DCE9EE"/>
<path d="M297.7 217.4C295.4 221.5 293.7 225.9 291.8 230.2C291.4 231.5 290.7 232.7 289.9 233.8C284.5 230.4 282.6 224.9 281.3 219.2C280.9 217.5 281.5 216.9 283.3 216.7C283.7 216.7 284.1 216.7 284.5 216.7C289.1 217 292.3 214.6 294.8 211.2C297.3 207.8 298.3 204 299 200.1C299.5 197.1 299.7 193.9 300 190.8C300.2 189 300.1 189 302 188.9L303.9 188.8C305.3 189 306.6 189.7 307.7 190.6C309.5 191.9 311.4 192.9 313.5 193.7C315.2 194.4 317.1 194.4 318.9 193.7C321.7 193.6 324.5 192.9 327 191.6C328.7 190.8 329.4 189.2 331 188.3C331.6 189.3 330.8 189.8 330.6 190.6C328.5 193.3 325.9 195.4 322.8 196.8C322.2 197 321.7 197.4 321.2 197.8L317.4 199.2C313.2 199.6 309.7 201.7 306.6 204.4C302.5 208.1 299.9 212.6 297.7 217.4Z" fill="#9EBFCC"/>
<path d="M344.428 171.389C342.638 171.389 340.954 171.602 339.164 171.815C337.585 172.133 336.006 172.027 334.427 171.602C333.059 171.07 331.691 170.858 330.217 170.964L330.006 170.752L329.691 170.539C324.638 168.306 321.69 164.054 319.585 159.271C317.901 155.444 319.796 147.471 326.006 145.557C326.848 145.238 327.796 145.132 328.638 144.919C330.533 144.707 331.901 143.112 331.796 141.199C331.901 139.817 331.796 138.435 331.796 137.159C331.796 132.694 335.585 130.249 340.112 131.206C341.164 131.418 341.691 132.375 342.427 133.119C342.849 133.651 343.164 134.182 343.48 134.82C345.901 140.242 348.638 145.557 350.217 151.298C351.691 156.613 351.059 162.247 348.533 167.137C347.585 168.838 346.112 170.326 344.428 171.389Z" fill="#A97255"/>
<path d="M318.8 193.74C317.1 194.44 315.2 194.38 313.4 193.68L318.8 193.74Z" fill="#010101"/>
<path d="M344.801 224.3H348.901C347.601 224.9 346.001 224.9 344.801 224.3Z" fill="white"/>
<path d="M312 228.6L311.5 229C311.5 228.8 311.7 228.6 312 228.6Z" fill="#83A9B9"/>
<path d="M303.9 188.5C302.8 188 301.5 187.9 300.4 188.2C297.3 188.5 294.2 188.6 291.1 188.4C288 188.4 285.1 187.3 282.7 185.4C280.5 183.6 278.3 181.7 276.3 179.7C272.3 175.8 267.9 172.1 263.4 168.7C261.2 167 258.8 165.9 256.1 165.3C252.4 164.5 248.7 163.4 244.9 162.6C240.4 161.7 235.8 161 231.1 160.7C223.6 159.8 216.9 157.3 211.3 152.1C208.1 149.1 206.6 145.3 205.6 141.2C204.9 138.7 204.7 136 205.2 133.4C206.7 129.7 209 126.3 211.8 123.5C215.4 119.8 220 118.5 224.9 117.9C228.3 117.9 231.7 118 235 118C236.4 118.2 237.7 118 239 117.5C243.2 116.8 246.9 114.3 249 110.5C249.9 108.9 250.8 107.3 251.5 105.6C254.3 99.1 259.1 95.1 266.1 93.9H270.7C276.3 94.6 281.6 96.7 286.1 100C288.7 101.9 291.3 104 293.6 106.3C295.7 108.6 298.3 110.1 301.3 110.8C301.9 111.2 302.6 111.4 303.3 111.3C305.4 111.4 307.4 111.2 309.4 110.8L310.2 110.7C310.9 110.8 311.6 110.6 312.3 110.3C312.4 110.3 312.5 110.3 312.6 110.2H313.1L316 109.8L316.5 109.7C317.9 109.7 319.4 109.6 320.8 109.3L321.3 109.2C324.2 108.9 327.1 108.9 330 109.2L330.5 109.3C330.9 109.6 331.5 109.7 332 109.6C339.4 111.3 346.2 114.7 351.9 119.6C354.8 122.1 357.1 125.3 358.6 128.8C360.1 132.4 361.2 136.1 362 140C363.6 147.2 363 154.3 362.1 161.4C361.9 161.6 361.8 161.9 361.9 162.2C360.6 166.4 357.8 170.1 354.1 172.5C351.4 174.6 348 175.5 344.6 175.1C344.4 173.8 344.2 172.5 344 171.3C345.6 170.3 347 168.9 348 167.3C350.4 162.7 351 157.4 349.6 152.4C348.2 147 345.5 142 343.2 136.9C342.9 136.3 342.6 135.8 342.2 135.3C341.6 134.6 341.1 133.7 340 133.5C335.7 132.5 332.1 134.8 332.1 139.1C332.1 140.4 332.1 141.7 332.1 142.9C332.2 144.7 330.9 146.2 329.1 146.4C328.2 146.6 327.4 146.8 326.6 147C320.7 148.8 318.9 156.3 320.5 159.9C322.5 164.4 325.4 168.3 330.1 170.4C330.2 170.7 330.4 170.9 330.6 170.9C331.6 173.9 332.2 177 332.4 180.2C332.5 182.4 332.8 184.6 332.1 186.8C331.8 186.8 331.6 187 331.6 187.3C331.3 187.6 330.9 187.8 331 188.3C329.4 189.2 328.4 190.8 326.8 191.7C324.2 192.9 321.5 193.6 318.7 193.8H313.3C311.2 193 309.3 192 307.5 190.7C306.6 189.5 305.3 188.8 303.9 188.5Z" fill="#010101"/>
</g>
</svg>
